<svg width="256" height="256" viewBox="0 0 256 256" fill="none" xmlns="http://www.w3.org/2000/svg">
<rect width="256" height="256" rx="24" fill="#201F21"/>
<path d="M141 41L42 83V171.5L138.5 209.5L235.5 171.5V83L141 41Z" fill="#C97629"/>
<path d="M71.5 125.5V97L103 110V138.5L71.5 125.5Z" fill="#C6391F"/>
<path d="M173 54C140.5 67 75.2 93.3 74 94.5V95.5L107.5 108.5L202.5 67L173 54Z" fill="#C6391F"/>
<line x1="137" y1="115.992" x2="137.187" y2="212.532" stroke="black" stroke-width="8"/>
<path d="M41.7713 80.3926C44.0377 80.1659 46.1475 78.8307 48.2051 77.9722C50.3465 77.0788 52.6171 76.5506 54.7308 75.7051" stroke="black" stroke-width="3" stroke-linecap="round"/>
<line x1="70.7554" y1="91.9785" x2="70.7554" y2="127.655" stroke="black" stroke-width="8"/>
<line x1="105.201" y1="106.741" x2="105.201" y2="141.187" stroke="black" stroke-width="8"/>
<line x1="37.4792" y1="170.686" x2="139.479" y2="211.284" stroke="black" stroke-width="8"/>
<path d="M68.2215 123.933L107.5 139.5" stroke="black" stroke-width="8"/>
<line x1="106" y1="142" x2="109" y2="142" stroke="black" stroke-width="2"/>
<line x1="38.6928" y1="80.8742" x2="142.031" y2="121.471" stroke="black" stroke-width="8"/>
<line x1="139.547" y1="40.3111" x2="239.302" y2="82.1385" stroke="black" stroke-width="8"/>
<line x1="136.602" y1="211.294" x2="237.494" y2="170.294" stroke="black" stroke-width="8"/>
<line x1="104.671" y1="107.934" x2="206.549" y2="68.2725" stroke="black" stroke-width="8"/>
<line x1="72.658" y1="94.4128" x2="173.521" y2="54.2834" stroke="black" stroke-width="8"/>
<line x1="135.415" y1="121.471" x2="238.753" y2="80.8742" stroke="black" stroke-width="8"/>
<line x1="38.2051" y1="82.1135" x2="142.773" y2="40.2861" stroke="black" stroke-width="8"/>
<line x1="237" y1="78.0579" x2="235.604" y2="174.461" stroke="black" stroke-width="8"/>
<line x1="40" y1="78" x2="40" y2="174" stroke="black" stroke-width="8"/>
<path fill-rule="evenodd" clip-rule="evenodd" d="M59.0854 225.2C78.6592 233.436 101.226 224.19 109.491 204.549C117.755 184.908 108.587 162.309 89.013 154.073C69.4392 145.837 46.872 155.083 38.6077 174.724C30.3434 194.365 39.5116 216.964 59.0854 225.2ZM74.4156 210C86.0136 210 95.4156 200.822 95.4156 189.5C95.4156 178.178 86.0136 169 74.4156 169C62.8177 169 53.4156 178.178 53.4156 189.5C53.4156 200.822 62.8177 210 74.4156 210Z" fill="white"/>
<path d="M93 190C93 199.875 84.7842 208 74.5 208C64.2158 208 56 199.875 56 190C56 180.125 64.2158 172 74.5 172C84.7842 172 93 180.125 93 190Z" stroke="black" stroke-width="6"/>
<path d="M112.406 182.741C113.353 187.69 113.354 192.862 112.295 197.978L108.868 197.268C108.404 199.508 107.718 201.738 106.795 203.931C105.872 206.125 104.757 208.175 103.48 210.072L106.384 212.027C103.466 216.361 99.7685 219.976 95.568 222.759L93.635 219.841C89.7408 222.421 85.3721 224.215 80.7974 225.115L81.4729 228.549C76.5232 229.523 71.3517 229.544 66.238 228.497L66.9399 225.068C64.7017 224.61 62.4731 223.926 60.282 223.004C58.0909 222.082 56.0441 220.967 54.1516 219.687L52.1909 222.586C47.8671 219.662 44.2661 215.95 41.5015 211.731L44.4291 209.813C41.874 205.913 40.1025 201.535 39.2243 196.947L35.7867 197.605C34.8395 192.656 34.8388 187.485 35.8973 182.369L39.3247 183.078C39.788 180.838 40.4747 178.608 41.3977 176.415C42.3207 174.221 43.435 172.171 44.712 170.274L41.8087 168.319C44.7263 163.986 48.424 160.371 52.6245 157.588L54.5575 160.505C58.4517 157.926 62.8203 156.131 67.3951 155.231L66.7196 151.797C71.6693 150.823 76.8408 150.803 81.9545 151.849L81.2526 155.278C83.4908 155.736 85.7193 156.42 87.9104 157.342C90.1016 158.264 92.1484 159.379 94.0408 160.659L96.0016 157.76C100.325 160.684 103.926 164.396 106.691 168.615L103.763 170.534C106.319 174.433 108.09 178.812 108.968 183.399L112.406 182.741Z" stroke="black" stroke-width="7" stroke-dasharray="16 16"/>
<circle cx="73.9156" cy="189.5" r="42" stroke="black" stroke-width="7" stroke-dasharray="22 22"/>
<path d="M81.1439 157.661L83.6439 145.661H64.6439L67.1439 157.161L61.1439 159.661L55.6439 162.661L48.6439 152.661L37.1439 165.661L46.1439 172.161L42.6439 182.661L30.6439 181.661V198.661L42.6439 196.661L47.1439 207.661L37.6439 214.161L50.1439 226.161L56.1439 217.661L67.6439 222.161L66.1439 232.661H82.1439L80.6439 222.161L92.1439 217.661L97.6439 226.661L109.644 214.661L101.644 208.661L106.644 196.661L117.144 199.161V180.661L106.644 184.161L106.144 183.161L102.144 171.661L110.644 165.661L98.6439 152.661L92.6439 163.161L86.6439 159.661L81.1439 157.661Z" stroke="black" stroke-width="4"/>
</svg>
